<svg id="Layer_1" data-name="Layer 1" xmlns="http://www.w3.org/2000/svg" viewBox="0 0 190 59.97"><defs><style>.cls-1{fill:#9a9a9a;}.cls-2{fill:#a4a7a9;}.cls-3{fill:#003146;}.cls-4{fill:none;}.cls-5{fill:#b5231d;}.cls-6{fill:#f15d22;}.cls-7{fill:#da471f;}</style></defs><title>hsbcad no tagline</title><path class="cls-1" d="M161.92,45.23A29.75,29.75,0,0,0,171,44V14.17l-3.39,2.36V26l-.15-.07a13,13,0,0,0-5-1c-6.39,0-9.63,3.28-9.63,9.74C152.86,41.68,155.91,45.23,161.92,45.23Zm.59-17.4a11.53,11.53,0,0,1,5.05,1.07l.06,0V41.65l-.07,0a15.38,15.38,0,0,1-5,.77c-4.19,0-6.31-2.66-6.31-7.91C156.2,30.09,158.32,27.83,162.51,27.83Z"/><path class="cls-2" d="M130.76,44.65a24.35,24.35,0,0,1-5.47.58q-11,0-11-10.65,0-9.87,11-9.87a24.35,24.35,0,0,1,5.47.58v2.93a25.28,25.28,0,0,0-5.67-.58q-7.14,0-7.13,6.94,0,7.72,7.13,7.72a25.26,25.26,0,0,0,5.67-.59Z"/><path class="cls-2" d="M133,38.84q0-6.31,8.32-6.31a37.17,37.17,0,0,1,5.36.39V31c0-2.35-1.85-3.53-5.53-3.53a23,23,0,0,0-6.49,1V25.49a23,23,0,0,1,6.49-1q9.15,0,9.15,6.38V45h-2L147,43a11.87,11.87,0,0,1-6.68,2Q133,45,133,38.84Zm8.32-3.38q-4.71,0-4.71,3.32t3.72,3.33a10.12,10.12,0,0,0,6.35-2V35.85A37.17,37.17,0,0,0,141.32,35.46Z"/><path class="cls-3" d="M63.39,24.88c-2.47,0-4.49.86-6.08,1V14.2l-5.09,3.52V45h5.09V31a7.49,7.49,0,0,1,4.84-2c2.21,0,3.32,1.12,3.32,3.34V45h5.08V32.33Q70.55,24.89,63.39,24.88Z"/><path class="cls-3" d="M83.79,32.85H80.52q-2.4,0-2.4-2t4.13-2.12a19.43,19.43,0,0,1,7.3,1.35V25.84a22.15,22.15,0,0,0-7.16-1.15q-9,0-9,6.34,0,6,6.14,6h3.65c1.47,0,2.21.68,2.21,2s-1.1,2.11-3.28,2.11a20.88,20.88,0,0,1-7.76-1.34v4.22a23.17,23.17,0,0,0,7.56,1.15q8.57,0,8.56-6.33Q90.5,32.85,83.79,32.85Z"/><path class="cls-3" d="M103.26,24.88a9,9,0,0,0-5.09,1.54V14.17L93.08,17.7V44.21A51.79,51.79,0,0,0,102,45q9.84,0,9.85-10.48Q111.86,24.89,103.26,24.88Zm-1,16.05a13.45,13.45,0,0,1-4-.55V30.14a10.5,10.5,0,0,1,4.68-1q4,0,4,5.31Q106.83,40.93,102.22,40.93Z"/><polygon class="cls-4" points="29.45 31.37 28.13 35.01 33.01 35.67 37.26 37.44 37.58 32.89 34.47 25.84 29.45 31.37"/><polygon class="cls-5" points="33.01 35.67 30.2 45.06 36.49 45.07 36.71 45.07 37.26 37.44 33.01 35.67"/><path class="cls-5" d="M37.58,32.89l8.89.16s-5.1-15.24-5-15.41l-7,8.2Z"/><polygon class="cls-6" points="30.89 18.75 19.4 33.05 29.45 31.37 34.47 25.84 41.5 17.64 30.89 18.75"/><polygon class="cls-7" points="37.58 32.89 37.26 37.44 36.71 45.07 46.48 33.05 37.58 32.89"/><polygon class="cls-7" points="28.13 35.01 20.75 40.17 30.2 45.06 33.01 35.67 28.13 35.01"/><polygon class="cls-5" points="29.45 31.37 19.4 33.05 20.75 40.17 28.13 35.01 29.45 31.37"/><rect class="cls-4" width="190" height="59.97"/></svg>